<svg fill="#000000" xmlns="http://www.w3.org/2000/svg"  viewBox="0 0 64 64" width="64px" height="64px"><path d="M 2.0253906 19 C 0.90839063 19 -2.9605947e-16 19.897 0 21 L 0 37 C 0 37.594 0.26465625 38.151297 0.72265625 38.529297 C 1.0856562 38.832297 1.5493906 39 2.0253906 39 C 2.1163906 39 2.1168125 39.000281 3.1328125 38.863281 L 3.1328125 38.853516 C 6.4248125 38.406516 17.811953 37 31.001953 37 C 44.110953 37 56.844406 38.387703 60.691406 38.845703 C 61.050406 38.890703 61.404797 38.935516 61.716797 38.978516 C 61.764797 38.986516 61.957 39 62 39 C 62.62 39 63.215797 38.705938 63.591797 38.210938 C 64.025797 37.638937 64.121797 36.870937 63.841797 36.210938 C 62.750797 33.626937 60.800781 28.566406 60.800781 28.566406 C 61.327781 27.373406 63.832031 21.810547 63.832031 21.810547 C 63.944031 21.555547 63.999 21.285625 64 21.015625 C 64.002 20.629625 63.892781 20.246156 63.675781 19.910156 C 63.304781 19.341156 62.679 19 62 19 L 2.0253906 19 z M 2 21 L 4.6054688 21 L 8.3925781 30.052734 L 8.4179688 21 L 11 21 L 11 35.958984 C 9.922 36.058984 8.9198594 36.158859 8.0058594 36.255859 L 4.625 28.115234 L 4.625 36.644531 C 3.221 36.818531 2.31 36.947187 2 36.992188 L 2 21 z M 13 21 L 20 21.005859 L 20 21.019531 L 20 23.503906 L 15.439453 23.503906 L 15.439453 27.140625 L 19 27.146484 L 19 29.607422 L 15.439453 29.607422 L 15.439453 32.962891 C 15.439453 32.962891 20.021 32.551781 20 32.550781 L 20 35.300781 C 17.475 35.434781 15.122 35.60325 13 35.78125 L 13 21 z M 22 21 L 29 21 L 29 23.533203 L 26.632812 23.533203 L 26.632812 35.048828 C 25.866812 35.065828 25.114188 35.088281 24.367188 35.113281 L 24.367188 23.533203 L 22 23.513672 L 22 21 z M 31 21 L 38 21 L 37.998047 23.605469 L 33.501953 23.605469 L 33.501953 27.330078 L 36.876953 27.367188 L 36.873047 30 L 33.501953 30 L 33.501953 35 L 31.001953 35 L 31 35 L 31 21 z M 40 21 L 42.628906 21.003906 C 42.625906 21.007906 42.625 21.011531 42.625 21.019531 L 42.669922 32.734375 L 46 32.869141 L 46 32.875 L 46 35.513672 C 44.092 35.391672 42.075 35.281312 40 35.195312 L 40 21 z M 48 21 L 50.625 21 L 50.625 35.847656 C 49.781 35.779656 48.905 35.713437 48 35.648438 L 48 21 z M 53.019531 21 L 55.761719 21.001953 C 56.044719 21.673953 57.453125 25.195312 57.453125 25.195312 C 57.453125 25.195312 58.982859 21.702 59.255859 21 L 62 21 L 58.632812 28.509766 C 58.632812 28.509766 60.892094 34.370188 61.996094 36.992188 C 61.816094 36.969187 59.569813 36.693859 59.132812 36.630859 C 58.826813 35.784859 57.248047 32.097656 57.248047 32.097656 C 57.248047 32.097656 55.700094 35.456766 55.371094 36.259766 L 52.769531 35.945312 C 53.160531 35.091313 56.009766 28.507813 56.009766 28.507812 C 56.009766 28.507812 53.395531 21.937 53.019531 21 z M 31.984375 39.986328 A 1.0001 1.0001 0 0 0 31 41 L 31 43 A 1.0001 1.0001 0 1 0 33 43 L 33 41 A 1.0001 1.0001 0 0 0 31.984375 39.986328 z M 27.103516 40.029297 A 1.0001 1.0001 0 0 0 26.138672 41.0625 L 26.177734 43.060547 A 1.0001907 1.0001907 0 0 0 28.177734 43.021484 L 28.138672 41.021484 A 1.0001 1.0001 0 0 0 27.103516 40.029297 z M 36.878906 40.074219 A 1.0001 1.0001 0 0 0 35.865234 41.060547 L 35.808594 43.058594 A 1.0001 1.0001 0 1 0 37.806641 43.117188 L 37.865234 41.117188 A 1.0001 1.0001 0 0 0 36.878906 40.074219 z M 22.21875 40.179688 A 1.0001 1.0001 0 0 0 21.279297 41.236328 L 21.365234 43.234375 A 1.0001 1.0001 0 1 0 23.363281 43.148438 L 23.277344 41.150391 A 1.0001 1.0001 0 0 0 22.21875 40.179688 z M 41.755859 40.261719 A 1.0001 1.0001 0 0 0 40.722656 41.226562 L 40.625 43.224609 A 1.0002161 1.0002161 0 0 0 42.623047 43.322266 L 42.720703 41.324219 A 1.0001 1.0001 0 0 0 41.755859 40.261719 z M 17.443359 40.443359 A 1.0001 1.0001 0 0 0 16.425781 41.521484 L 16.554688 43.517578 A 1.0001255 1.0001255 0 1 0 18.550781 43.388672 L 18.421875 41.392578 A 1.0001 1.0001 0 0 0 17.443359 40.443359 z M 46.523438 40.539062 A 1.0001 1.0001 0 0 0 45.572266 41.486328 L 45.439453 43.482422 A 1.0002538 1.0002538 0 1 0 47.435547 43.615234 L 47.568359 41.619141 A 1.0001 1.0001 0 0 0 46.523438 40.539062 z M 12.574219 40.806641 A 1.0001 1.0001 0 0 0 11.580078 41.90625 L 11.751953 43.900391 A 1.0001 1.0001 0 1 0 13.744141 43.728516 L 13.572266 41.734375 A 1.0001 1.0001 0 0 0 12.574219 40.806641 z M 51.380859 40.902344 A 1.0001 1.0001 0 0 0 50.416016 41.833984 L 50.251953 43.826172 A 1.0001 1.0001 0 1 0 52.244141 43.992188 L 52.410156 41.998047 A 1.0001 1.0001 0 0 0 51.380859 40.902344 z M 7.7128906 41.277344 A 1.0001 1.0001 0 0 0 6.7441406 42.398438 L 6.9589844 44.386719 A 1.0001 1.0001 0 1 0 8.9472656 44.171875 L 8.7324219 42.183594 A 1.0001 1.0001 0 0 0 7.7128906 41.277344 z M 56.236328 41.34375 A 1.0001 1.0001 0 0 0 55.255859 42.257812 L 55.056641 44.248047 A 1.0001 1.0001 0 1 0 57.046875 44.447266 L 57.244141 42.457031 A 1.0001 1.0001 0 0 0 56.236328 41.34375 z"/></svg>