<svg fill="#000000" xmlns="http://www.w3.org/2000/svg"  viewBox="0 0 64 64" width="64px" height="64px"><path d="M 2.6523438 19 C 1.1903437 19 0 20.184625 0 21.640625 L 0 34.359375 C 0 35.815375 1.1903437 37 2.6523438 37 L 4 37 L 5.2617188 37 L 54 37 L 57 37 C 60.86 37 64 33.361672 64 28.888672 L 64 27.109375 C 64 22.637375 60.86 19 57 19 L 54 19 L 45.324219 19 L 40.253906 19 L 32.363281 19 L 24.392578 19 L 20.423828 19 L 18.873047 19 L 12.492188 19 L 9.5820312 19 L 5.2617188 19 L 4 19 L 2.6523438 19 z M 9.6953125 21 L 12.433594 21 C 12.763594 21.019 13.035797 21.2525 13.091797 21.5625 L 15.027344 29.246094 C 15.086344 29.482094 15.281297 29.668609 15.529297 29.724609 C 15.582297 29.736609 15.633547 29.742188 15.685547 29.742188 C 15.991547 29.742188 16.26975 29.542094 16.34375 29.246094 L 18.28125 21.5625 C 18.33725 21.2535 18.6095 21.021 18.9375 21 L 20.306641 21 C 20.343641 21.004 20.380969 21.011484 20.417969 21.021484 C 20.838969 21.130484 21.086656 21.542359 20.972656 21.943359 L 18.638672 33.414062 C 18.457672 34.307063 17.637594 34.953078 16.683594 34.955078 L 13.320312 34.955078 C 12.365312 34.954078 11.544281 34.308062 11.363281 33.414062 L 9.0273438 21.943359 C 9.0173438 21.908359 9.0108594 21.872937 9.0058594 21.835938 C 8.9538594 21.423938 9.2623125 21.049 9.6953125 21 z M 24.429688 21 L 32.287109 21 C 32.694109 21.016 33.013 21.361391 33 21.775391 L 33 23.324219 C 33.014 23.738219 32.695109 24.086562 32.287109 24.101562 L 28 24.101562 C 27.592 24.116563 27.272109 24.464906 27.287109 24.878906 L 27.287109 26.427734 L 30.857422 26.427734 C 31.265422 26.441734 31.586266 26.788125 31.572266 27.203125 L 31.572266 28.755859 C 31.585266 29.170859 31.265422 29.516297 30.857422 29.529297 L 27.287109 29.529297 L 27.287109 31.078125 C 27.272109 31.493125 27.592953 31.842422 28.001953 31.857422 L 32.287109 31.857422 C 32.695109 31.872422 33.014953 32.218812 33.001953 32.632812 L 33.001953 34.181641 C 33.014953 34.595641 32.694109 34.941031 32.287109 34.957031 L 24.429688 34.957031 C 23.613688 34.928031 22.975953 34.23425 23.001953 33.40625 L 23.001953 22.550781 C 22.975953 21.722781 23.613688 21.029 24.429688 21 z M 45.287109 21 C 45.694109 21.016 46.013 21.361391 46 21.775391 L 46 23.324219 C 46.014 23.738219 45.695109 24.086562 45.287109 24.101562 L 41.714844 24.101562 C 40.898844 24.132562 40.261062 24.825297 40.289062 25.654297 L 40.289062 30.304688 C 40.261063 31.132687 40.899844 31.826422 41.714844 31.857422 L 45.287109 31.857422 C 45.695109 31.872422 46.013 32.220766 46 32.634766 L 46 34.183594 C 46.013 34.597594 45.695109 34.942984 45.287109 34.958984 L 40.287109 34.958984 C 37.839109 34.872984 35.921953 32.790688 36.001953 30.304688 L 36.001953 25.65625 C 35.921953 23.17025 37.839109 21.087953 40.287109 21.001953 L 45.287109 21.001953 L 45.287109 21 z M 54 21 L 57 21 C 59.758 21 62 23.741375 62 27.109375 L 62 28.888672 C 62 32.256672 59.758 34.998047 57 34.998047 L 54 34.998047 C 51.242 34.998047 49 32.256672 49 28.888672 L 49 27.109375 C 49 23.741375 51.242 21 54 21 z M 2.6523438 21.005859 L 5.2617188 21.005859 C 5.6227187 21.005859 5.9121094 21.288625 5.9121094 21.640625 L 5.9121094 34.359375 C 5.9121094 34.711375 5.6227188 34.994141 5.2617188 34.994141 L 2.6523438 34.994141 C 2.2913437 34.994141 2 34.712375 2 34.359375 L 2 21.640625 C 2 21.288625 2.2913438 21.005859 2.6523438 21.005859 z M 55.5 23.996094 L 55.414062 24.003906 C 54.302063 24.098906 53.303875 24.597141 52.671875 25.369141 C 52.176875 25.974141 51.943719 26.713125 52.011719 27.453125 L 52.011719 28.546875 C 51.943719 29.286875 52.176875 30.025859 52.671875 30.630859 C 53.303875 31.402859 54.302062 31.900094 55.414062 31.996094 L 55.5 32.003906 L 55.585938 31.996094 C 56.697937 31.901094 57.696125 31.402859 58.328125 30.630859 C 58.823125 30.025859 59.056281 29.286875 58.988281 28.546875 L 58.988281 27.453125 C 59.056281 26.713125 58.823125 25.974141 58.328125 25.369141 C 57.696125 24.597141 56.697938 24.099906 55.585938 24.003906 L 55.5 23.996094 z M 2 40 C 1.4 40 1 40.4 1 41 L 1 43 C 1 43.6 1.4 44 2 44 C 2.6 44 3 43.6 3 43 L 3 41 C 3 40.4 2.6 40 2 40 z M 7 40 C 6.4 40 6 40.4 6 41 L 6 43 C 6 43.6 6.4 44 7 44 C 7.6 44 8 43.6 8 43 L 8 41 C 8 40.4 7.6 40 7 40 z M 12 40 C 11.4 40 11 40.4 11 41 L 11 43 C 11 43.6 11.4 44 12 44 C 12.6 44 13 43.6 13 43 L 13 41 C 13 40.4 12.6 40 12 40 z M 17 40 C 16.4 40 16 40.4 16 41 L 16 43 C 16 43.6 16.4 44 17 44 C 17.6 44 18 43.6 18 43 L 18 41 C 18 40.4 17.6 40 17 40 z M 22 40 C 21.4 40 21 40.4 21 41 L 21 43 C 21 43.6 21.4 44 22 44 C 22.6 44 23 43.6 23 43 L 23 41 C 23 40.4 22.6 40 22 40 z M 27 40 C 26.4 40 26 40.4 26 41 L 26 43 C 26 43.6 26.4 44 27 44 C 27.6 44 28 43.6 28 43 L 28 41 C 28 40.4 27.6 40 27 40 z M 32 40 C 31.4 40 31 40.4 31 41 L 31 43 C 31 43.6 31.4 44 32 44 C 32.6 44 33 43.6 33 43 L 33 41 C 33 40.4 32.6 40 32 40 z M 37 40 C 36.4 40 36 40.4 36 41 L 36 43 C 36 43.6 36.4 44 37 44 C 37.6 44 38 43.6 38 43 L 38 41 C 38 40.4 37.6 40 37 40 z M 42 40 C 41.4 40 41 40.4 41 41 L 41 43 C 41 43.6 41.4 44 42 44 C 42.6 44 43 43.6 43 43 L 43 41 C 43 40.4 42.6 40 42 40 z M 47 40 C 46.4 40 46 40.4 46 41 L 46 43 C 46 43.6 46.4 44 47 44 C 47.6 44 48 43.6 48 43 L 48 41 C 48 40.4 47.6 40 47 40 z M 52 40 C 51.4 40 51 40.4 51 41 L 51 43 C 51 43.6 51.4 44 52 44 C 52.6 44 53 43.6 53 43 L 53 41 C 53 40.4 52.6 40 52 40 z M 57 40 C 56.4 40 56 40.4 56 41 L 56 43 C 56 43.6 56.4 44 57 44 C 57.6 44 58 43.6 58 43 L 58 41 C 58 40.4 57.6 40 57 40 z M 62 40 C 61.4 40 61 40.4 61 41 L 61 43 C 61 43.6 61.4 44 62 44 C 62.6 44 63 43.6 63 43 L 63 41 C 63 40.4 62.6 40 62 40 z"/></svg>