<svg xmlns="http://www.w3.org/2000/svg"  viewBox="0 0 100 100" width="500px" height="500px"><path fill="#c7ede6" d="M87.215,56.71C88.35,54.555,89,52.105,89,49.5c0-6.621-4.159-12.257-10.001-14.478	C78.999,35.015,79,35.008,79,35c0-11.598-9.402-21-21-21c-9.784,0-17.981,6.701-20.313,15.757C36.211,29.272,34.638,29,33,29	c-7.692,0-14.023,5.793-14.89,13.252C12.906,43.353,9,47.969,9,53.5C9,59.851,14.149,65,20.5,65c0.177,0,0.352-0.012,0.526-0.022	C21.022,65.153,21,65.324,21,65.5C21,76.822,30.178,86,41.5,86c6.437,0,12.175-2.972,15.934-7.614C59.612,80.611,62.64,82,66,82	c4.65,0,8.674-2.65,10.666-6.518C77.718,75.817,78.837,76,80,76c6.075,0,11-4.925,11-11C91,61.689,89.53,58.727,87.215,56.71z"/><path fill="#fdfcef" d="M76.5,60.5V61h3v-0.5c0,0,4.242,0,5.5,0c2.485,0,4.5-2.015,4.5-4.5c0-2.333-1.782-4.229-4.055-4.455 C85.467,51.364,85.5,51.187,85.5,51c0-2.485-2.015-4.5-4.5-4.5c-1.438,0-2.703,0.686-3.527,1.736 C77.333,45.6,75.171,43.5,72.5,43.5c-2.761,0-5,2.239-5,5c0,0.446,0.077,0.87,0.187,1.282C67.045,49.005,66.086,48.5,65,48.5 c-1.781,0-3.234,1.335-3.455,3.055C61.364,51.533,61.187,51.5,61,51.5c-2.485,0-4.5,2.015-4.5,4.5s2.015,4.5,4.5,4.5s9.5,0,9.5,0 H76.5z"/><path fill="#472b29" d="M72.5,43c-3.033,0-5.5,2.467-5.5,5.5c0,0.016,0,0.031,0,0.047C66.398,48.192,65.71,48,65,48 c-1.831,0-3.411,1.261-3.858,3.005C61.095,51.002,61.048,51,61,51c-2.757,0-5,2.243-5,5s2.243,5,5,5h15.5 c0.276,0,0.5-0.224,0.5-0.5S76.776,60,76.5,60H61c-2.206,0-4-1.794-4-4s1.794-4,4-4c0.117,0,0.23,0.017,0.343,0.032l0.141,0.019 c0.021,0.003,0.041,0.004,0.062,0.004c0.246,0,0.462-0.185,0.495-0.437C62.232,50.125,63.504,49,65,49 c0.885,0,1.723,0.401,2.301,1.1c0.098,0.118,0.241,0.182,0.386,0.182c0.078,0,0.156-0.018,0.228-0.056 c0.209-0.107,0.314-0.346,0.254-0.573C68.054,49.218,68,48.852,68,48.5c0-2.481,2.019-4.5,4.5-4.5c2.381,0,4.347,1.872,4.474,4.263 c0.011,0.208,0.15,0.387,0.349,0.45c0.05,0.016,0.101,0.024,0.152,0.024c0.15,0,0.296-0.069,0.392-0.192 C78.638,47.563,79.779,47,81,47c2.206,0,4,1.794,4,4c0,0.117-0.017,0.23-0.032,0.343l-0.019,0.141 c-0.016,0.134,0.022,0.268,0.106,0.373c0.084,0.105,0.207,0.172,0.34,0.185C87.451,52.247,89,53.949,89,56c0,2.206-1.794,4-4,4 h-5.5c-0.276,0-0.5,0.224-0.5,0.5s0.224,0.5,0.5,0.5H85c2.757,0,5-2.243,5-5c0-2.397-1.689-4.413-4.003-4.877 C85.999,51.082,86,51.041,86,51c0-2.757-2.243-5-5-5c-1.176,0-2.293,0.416-3.183,1.164C77.219,44.76,75.055,43,72.5,43L72.5,43z"/><path fill="#472b29" d="M71,50c-1.403,0-2.609,0.999-2.913,2.341C67.72,52.119,67.301,52,66.875,52 c-1.202,0-2.198,0.897-2.353,2.068C64.319,54.022,64.126,54,63.937,54c-1.529,0-2.811,1.2-2.918,2.732 C61.01,56.87,61.114,56.99,61.251,57c0.006,0,0.012,0,0.018,0c0.13,0,0.24-0.101,0.249-0.232c0.089-1.271,1.151-2.268,2.419-2.268 c0.229,0,0.47,0.042,0.738,0.127c0.022,0.007,0.045,0.01,0.067,0.01c0.055,0,0.11-0.02,0.156-0.054 C64.962,54.537,65,54.455,65,54.375c0-1.034,0.841-1.875,1.875-1.875c0.447,0,0.885,0.168,1.231,0.473 c0.047,0.041,0.106,0.063,0.165,0.063c0.032,0,0.063-0.006,0.093-0.019c0.088-0.035,0.148-0.117,0.155-0.212 C68.623,51.512,69.712,50.5,71,50.5c0.208,0,0.425,0.034,0.682,0.107c0.023,0.007,0.047,0.01,0.07,0.01 c0.109,0,0.207-0.073,0.239-0.182c0.038-0.133-0.039-0.271-0.172-0.309C71.517,50.04,71.256,50,71,50L71,50z"/><path fill="#472b29" d="M84.883,51.5c-1.326,0-2.508,0.897-2.874,2.182c-0.038,0.133,0.039,0.271,0.172,0.309 C82.205,53.997,82.228,54,82.25,54c0.109,0,0.209-0.072,0.24-0.182C82.795,52.748,83.779,52,84.883,52 c0.117,0,0.23,0.014,0.342,0.029c0.012,0.002,0.023,0.003,0.035,0.003c0.121,0,0.229-0.092,0.246-0.217 c0.019-0.137-0.077-0.263-0.214-0.281C85.158,51.516,85.022,51.5,84.883,51.5L84.883,51.5z"/><path fill="#fff" d="M15.5,51h-10C5.224,51,5,50.776,5,50.5S5.224,50,5.5,50h10c0.276,0,0.5,0.224,0.5,0.5 S15.777,51,15.5,51z"/><path fill="#fff" d="M18.5,51h-1c-0.276,0-0.5-0.224-0.5-0.5s0.224-0.5,0.5-0.5h1c0.276,0,0.5,0.224,0.5,0.5 S18.777,51,18.5,51z"/><path fill="#fff" d="M23.491,53H14.5c-0.276,0-0.5-0.224-0.5-0.5s0.224-0.5,0.5-0.5h8.991c0.276,0,0.5,0.224,0.5,0.5 S23.767,53,23.491,53z"/><path fill="#fff" d="M12.5,53h-1c-0.276,0-0.5-0.224-0.5-0.5s0.224-0.5,0.5-0.5h1c0.276,0,0.5,0.224,0.5,0.5 S12.777,53,12.5,53z"/><path fill="#fff" d="M9.5,53h-2C7.224,53,7,52.776,7,52.5S7.224,52,7.5,52h2c0.276,0,0.5,0.224,0.5,0.5S9.777,53,9.5,53z"/><path fill="#fff" d="M15.5,55h-2c-0.276,0-0.5-0.224-0.5-0.5s0.224-0.5,0.5-0.5h2c0.276,0,0.5,0.224,0.5,0.5 S15.776,55,15.5,55z"/><path fill="#fff" d="M18.5,46c-0.177,0-0.823,0-1,0c-0.276,0-0.5,0.224-0.5,0.5c0,0.276,0.224,0.5,0.5,0.5 c0.177,0,0.823,0,1,0c0.276,0,0.5-0.224,0.5-0.5C19,46.224,18.776,46,18.5,46z"/><path fill="#fff" d="M18.5,48c-0.177,0-4.823,0-5,0c-0.276,0-0.5,0.224-0.5,0.5c0,0.276,0.224,0.5,0.5,0.5 c0.177,0,4.823,0,5,0c0.276,0,0.5-0.224,0.5-0.5C19,48.224,18.776,48,18.5,48z"/><path fill="#fff" d="M23.5,50c-0.177,0-2.823,0-3,0c-0.276,0-0.5,0.224-0.5,0.5c0,0.276,0.224,0.5,0.5,0.5 c0.177,0,2.823,0,3,0c0.276,0,0.5-0.224,0.5-0.5C24,50.224,23.776,50,23.5,50z"/><g><path fill="#fff" d="M72.5,24h-10c-0.276,0-0.5-0.224-0.5-0.5s0.224-0.5,0.5-0.5h10c0.276,0,0.5,0.224,0.5,0.5 S72.776,24,72.5,24z"/><path fill="#fff" d="M76.5,24h-2c-0.276,0-0.5-0.224-0.5-0.5s0.224-0.5,0.5-0.5h2c0.276,0,0.5,0.224,0.5,0.5 S76.776,24,76.5,24z"/><path fill="#fff" d="M81.5,26h-10c-0.276,0-0.5-0.224-0.5-0.5s0.224-0.5,0.5-0.5h10c0.276,0,0.5,0.224,0.5,0.5 S81.777,26,81.5,26z"/><path fill="#fff" d="M69.5,26h-1c-0.276,0-0.5-0.224-0.5-0.5s0.224-0.5,0.5-0.5h1c0.276,0,0.5,0.224,0.5,0.5 S69.776,26,69.5,26z"/><path fill="#fff" d="M66.47,26H64.5c-0.276,0-0.5-0.224-0.5-0.5s0.224-0.5,0.5-0.5h1.97c0.276,0,0.5,0.224,0.5,0.5 S66.746,26,66.47,26z"/><path fill="#fff" d="M75.5,22h-5c-0.276,0-0.5-0.224-0.5-0.5s0.224-0.5,0.5-0.5h5c0.276,0,0.5,0.224,0.5,0.5 S75.777,22,75.5,22z"/><path fill="#fff" d="M72.5,28h-2c-0.276,0-0.5-0.224-0.5-0.5s0.224-0.5,0.5-0.5h2c0.276,0,0.5,0.224,0.5,0.5 S72.776,28,72.5,28z"/></g><g><circle cx="52" cy="50" r="23" fill="#f47c22"/><path fill="#fff" d="M65.625,61.625h-10.25V48c0-2.413-1.514-4.375-3.375-4.375S48.625,45.587,48.625,48v13.625h-10.25 V49c0-7.513,6.112-13.625,13.625-13.625S65.625,41.487,65.625,49V61.625z"/><path fill="#472b29" d="M51.999,27.4C64.461,27.4,74.6,37.538,74.6,49.999C74.6,62.461,64.461,72.6,51.999,72.6 C39.538,72.6,29.4,62.462,29.4,50S39.538,27.4,51.999,27.4 M51.999,26C38.765,26,28,36.766,28,50s10.765,24,23.999,24 S76,63.233,76,49.999S65.234,26,51.999,26L51.999,26z"/><path fill="#472b29" d="M65.625,62h-10.25C55.168,62,55,61.832,55,61.625V48c0-2.206-1.346-4-3-4s-3,1.794-3,4v13.625 C49,61.832,48.832,62,48.625,62h-10.25C38.168,62,38,61.832,38,61.625V49c0-7.72,6.28-14,14-14s14,6.28,14,14v12.625 C66,61.832,65.832,62,65.625,62z M55.75,61.25h9.5V49c0-7.306-5.944-13.25-13.25-13.25S38.75,41.694,38.75,49v12.25h9.5V48 c0-2.619,1.683-4.75,3.75-4.75s3.75,2.131,3.75,4.75V61.25z"/><path fill="#472b29" d="M43.375,67.976c-0.056,0-0.112-0.012-0.165-0.039c-0.83-0.408-1.552-0.816-2.207-1.25 c-0.173-0.114-0.22-0.347-0.105-0.52c0.115-0.173,0.349-0.22,0.52-0.106c0.628,0.416,1.323,0.809,2.123,1.203 c0.187,0.091,0.263,0.316,0.172,0.502C43.646,67.899,43.513,67.976,43.375,67.976z"/><path fill="#472b29" d="M33.551,57c-0.153,0-0.298-0.095-0.353-0.248C32.403,54.546,32,52.274,32,50 c0-11.028,8.972-20,20-20c1.191,0,2.435,0.12,3.694,0.356c0.203,0.038,0.338,0.234,0.299,0.438 c-0.037,0.203-0.228,0.338-0.438,0.299c-1.214-0.228-2.41-0.343-3.556-0.343c-10.614,0-19.25,8.636-19.25,19.25 c0,2.188,0.388,4.374,1.153,6.498c0.07,0.195-0.03,0.41-0.226,0.48C33.636,56.993,33.593,57,33.551,57z"/><path fill="#472b29" d="M59.625,32.292c-0.049,0-0.099-0.009-0.146-0.03c-0.637-0.269-1.358-0.518-2.206-0.76 c-0.199-0.057-0.314-0.264-0.258-0.463s0.266-0.317,0.463-0.257c0.878,0.25,1.628,0.509,2.294,0.791 c0.19,0.081,0.279,0.3,0.199,0.491C59.91,32.206,59.771,32.292,59.625,32.292z"/><path fill="#472b29" d="M52,70c-2.187,0-4.372-0.372-6.497-1.104c-0.196-0.067-0.3-0.281-0.232-0.477 c0.067-0.196,0.286-0.299,0.477-0.232c2.046,0.706,4.15,1.063,6.253,1.063c4.115,0,8.058-1.306,11.402-3.777 c0.164-0.121,0.402-0.088,0.524,0.079c0.123,0.167,0.088,0.401-0.079,0.524C60.374,68.643,56.277,70,52,70z"/><path fill="#472b29" d="M69.084,60c-0.063,0-0.126-0.016-0.185-0.049c-0.181-0.102-0.244-0.331-0.142-0.511 c1.63-2.883,2.492-6.147,2.492-9.44c0-6.051-2.789-11.637-7.651-15.326c-0.165-0.125-0.197-0.36-0.072-0.525 c0.126-0.165,0.361-0.197,0.525-0.072C69.103,37.909,72,43.713,72,50c0,3.422-0.896,6.814-2.59,9.81 C69.342,59.932,69.215,60,69.084,60z"/></g><g><path fill="#fdfcef" d="M29.5,69.5c0,0,1.567,0,3.5,0s3.5-1.567,3.5-3.5c0-1.781-1.335-3.234-3.055-3.455 C33.473,62.366,33.5,62.187,33.5,62c0-1.933-1.567-3.5-3.5-3.5c-1.032,0-1.95,0.455-2.59,1.165 c-0.384-1.808-1.987-3.165-3.91-3.165c-2.209,0-4,1.791-4,4c0,0.191,0.03,0.374,0.056,0.558C19.128,60.714,18.592,60.5,18,60.5 c-1.228,0-2.245,0.887-2.455,2.055C15.366,62.527,15.187,62.5,15,62.5c-1.933,0-3.5,1.567-3.5,3.5s1.567,3.5,3.5,3.5s7.5,0,7.5,0 V70h7V69.5z"/><path fill="#472b29" d="M31.25,65C31.112,65,31,64.888,31,64.75c0-1.223,0.995-2.218,2.218-2.218 c0.034,0.009,0.737-0.001,1.244,0.136c0.133,0.036,0.212,0.173,0.176,0.306c-0.036,0.134-0.173,0.213-0.306,0.176 c-0.444-0.12-1.1-0.12-1.113-0.118c-0.948,0-1.719,0.771-1.719,1.718C31.5,64.888,31.388,65,31.25,65z"/><circle cx="24.5" cy="69.5" r=".5" fill="#472b29"/><path fill="#472b29" d="M33,70h-3.5c-0.276,0-0.5-0.224-0.5-0.5s0.224-0.5,0.5-0.5H33c1.654,0,3-1.346,3-3 c0-1.496-1.125-2.768-2.618-2.959c-0.134-0.018-0.255-0.088-0.336-0.196s-0.115-0.244-0.094-0.377C32.975,62.314,33,62.16,33,62 c0-1.654-1.346-3-3-3c-0.85,0-1.638,0.355-2.219,1c-0.125,0.139-0.321,0.198-0.5,0.148c-0.182-0.049-0.321-0.195-0.36-0.379 C26.58,58.165,25.141,57,23.5,57c-1.93,0-3.5,1.57-3.5,3.5c0,0.143,0.021,0.28,0.041,0.418c0.029,0.203-0.063,0.438-0.242,0.54 c-0.179,0.102-0.396,0.118-0.556-0.01C18.878,61.155,18.449,61,18,61c-0.966,0-1.792,0.691-1.963,1.644 c-0.048,0.267-0.296,0.446-0.569,0.405C15.314,63.025,15.16,63,15,63c-1.654,0-3,1.346-3,3s1.346,3,3,3h7.5 c0.276,0,0.5,0.224,0.5,0.5S22.776,70,22.5,70H15c-2.206,0-4-1.794-4-4s1.794-4,4-4c0.059,0,0.116,0.002,0.174,0.006 C15.588,60.82,16.711,60,18,60c0.349,0,0.689,0.061,1.011,0.18C19.176,57.847,21.126,56,23.5,56c1.831,0,3.466,1.127,4.153,2.774 C28.333,58.276,29.155,58,30,58c2.206,0,4,1.794,4,4c0,0.048-0.001,0.095-0.004,0.142C35.739,62.59,37,64.169,37,66 C37,68.206,35.206,70,33,70z"/><path fill="#472b29" d="M27.5,69c-0.159,0-0.841,0-1,0c-0.276,0-0.5,0.224-0.5,0.5c0,0.276,0.224,0.5,0.5,0.5 c0.159,0,0.841,0,1,0c0.276,0,0.5-0.224,0.5-0.5C28,69.224,27.776,69,27.5,69z"/></g></svg>